# xmcd
#
# Track frame offsets: 
#        150
#        13909
#        34761
#
# Disc length: 832 seconds
#
# Revision: 0
# Processed by: cddbd v1.4PL0 Copyright (c) Steve Scherf et al.
# Submitted via: ExactAudioCopy v0.90b4
#
DISCID=1d033e03
DTITLE=John Lee Hooker Jr. - On The Hook [CD Single)
DYEAR=2003
DGENRE=R&B
TTITLE0=Keep It Real
TTITLE1=Stormy Monday
TTITLE2=One Bourbon, One Scotch, One Beer
EXTD=
EXTT0=
EXTT1=
EXTT2=
PLAYORDER=
